<svg xmlns="http://www.w3.org/2000/svg" viewBox="0 0 24 24" width="24" height="24" fill="none">
  <path d="M12 2C12 2 13.8 5.2 13.8 7.8C13.8 9.3 13 10.5 12 11.2C13.2 10.6 14.5 9.3 15 7.8C17.5 10.5 18.5 14 17 17.5C15.8 20.2 13.1 22 10.2 22C5.6 22 2 18.4 2 13.8C2 9.8 4.6 6.3 8.2 5C8 6.2 8.4 7.5 9.3 8.4C9.8 6 10.8 3.8 12 2Z" fill="#FF5722"/>
  <path d="M11 11C11 11 12.2 13 12.2 14.5C12.2 15.3 11.8 16 11.2 16.4C12 16 12.8 15.2 13 14.2C14.2 15.8 14.6 17.5 13.8 19.2C13.2 20.3 12 21 10.8 21C8.2 21 6.5 19 6.5 16.8C6.5 14.5 7.8 12.5 9.8 11.8C9.7 12.4 9.9 13.1 10.4 13.6C10.7 12.3 11 11.5 11 11Z" fill="#FFC107"/>
</svg>
