<svg xmlns="http://www.w3.org/2000/svg" viewBox="0 0 24 24" width="24" height="24" fill="none">
  <path d="M12.3 2C6.98 2 2.69 6.29 2.69 11.61C2.69 16.93 6.98 21.22 12.3 21.22C16.32 21.22 19.74 18.76 21.14 15.22C14.7 15.84 9.18 10.32 9.8 3.88C6.26 5.28 3.8 8.7 3.8 12.72" fill="#E83B87"/>
  <path d="M12 2C6.48 2 2 6.48 2 12C2 17.52 6.48 22 12 22C17.52 22 22 17.52 22 12C22 11.9 22 11.8 22 11.7C20.84 12.54 19.42 13 17.89 13C13.53 13 10 9.47 10 5.11C10 3.58 10.46 2.16 11.3 1C11.63 1.33 12 1.67 12.3 2Z" fill="#F5A623"/>
</svg>
